<svg width="200" height="128" viewBox="0 0 200 128" fill="none" xmlns="http://www.w3.org/2000/svg">
<g opacity="0.3">
<path d="M111.35 2.54864C122.498 -0.515746 147.891 16.5929 154.449 28.4627C154.449 48.3153 96.023 42.609 101.597 37.0354C107.17 31.4617 97.4164 6.37913 111.35 2.54864Z" fill="#F6EBD8" stroke="#2F2F2F" stroke-width="3" stroke-linecap="round"/>
<path d="M71.9725 62.0024C115.923 9.94422 186.383 12.214 198.121 86.3128C198.347 87.7403 197.487 89.1468 196.132 89.6501C170.551 99.1526 181.274 113.199 160.086 121.15C123.13 135.017 84.359 111.485 73.5922 92.2114C72.6518 90.528 70.4549 89.8616 68.8643 90.9518L23.7393 121.881C21.2517 123.586 17.9854 120.901 19.0296 118.072C35.9635 72.194 18.4302 53.9799 4.85236 26.2154C3.53619 23.5241 6.52713 21.1164 8.92 22.9191C38.3633 45.1006 64.3546 71.0257 71.9725 62.0024Z" fill="#FFB844" stroke="#2F2F2F" stroke-width="3" stroke-linecap="round"/>
<path d="M71.3768 62.6069C71.5868 62.4263 71.7859 62.2249 71.9739 62.0024C71.7714 62.2055 71.5724 62.407 71.3768 62.6069C63.0716 69.749 37.6384 44.5535 8.92132 22.9191C6.52845 21.1164 3.53751 23.5241 4.85367 26.2154C18.502 54.1241 36.147 72.3828 18.7644 118.789C17.7296 121.551 20.822 124.226 23.3235 122.662L73.0117 91.595C69.836 87.1663 49.8556 84.6037 71.3768 62.6069Z" fill="#F6EBD8"/>
<path d="M71.9739 62.0024C64.3559 71.0257 38.3646 45.1006 8.92132 22.9191C6.52845 21.1164 3.53751 23.5241 4.85367 26.2154C18.502 54.1241 36.147 72.3828 18.7644 118.789C17.7296 121.551 20.822 124.226 23.3235 122.662L73.0117 91.595C69.8072 87.1261 49.491 84.5573 71.9739 62.0024Z" stroke="#2F2F2F" stroke-width="3" stroke-linecap="round"/>
<circle r="22.0182" transform="matrix(-1 0 0 1 150.794 58.6042)" fill="#F6EBD8" stroke="#2F2F2F" stroke-width="3"/>
<circle r="8.81019" transform="matrix(-1 0 0 1 150.795 58.5992)" fill="#2F2F2F"/>
<path d="M99.6928 110.02C108.23 112.367 127.677 99.2648 132.699 90.1745C132.699 74.9708 87.9547 79.3409 92.2231 83.6093C96.4916 87.8778 89.0218 107.087 99.6928 110.02Z" fill="#F6EBD8" stroke="#2F2F2F" stroke-width="3" stroke-linecap="round"/>
</g>
</svg>
