<svg width="195" height="556" viewBox="0 0 195 556" fill="none" xmlns="http://www.w3.org/2000/svg">
<g opacity="0.3">
<path d="M104.741 168.722C105.61 173.178 107.103 180.946 107.83 185.07C108.146 186.858 107.672 188.57 106.571 190.013L105.788 191.042C104.233 193.082 101.957 194.462 99.4129 194.782C93.0762 195.58 84.6544 196.157 83.3652 194.372C81.7773 192.173 84.7613 189.852 86.4518 188.966C85.6402 186.503 85.2348 183.586 86.5716 181.699C89.1672 178.034 93.9769 183.761 96.7249 169.103C98.2269 161.091 102.532 154.056 104.741 168.722Z" fill="#B5BB3B"/>
<path d="M87.9457 192.387C87.4743 191.553 86.9009 190.329 86.4518 188.966M86.4518 188.966C85.6402 186.503 85.2348 183.586 86.5716 181.699C89.1672 178.034 93.9769 183.761 96.7249 169.103C98.2269 161.091 102.532 154.056 104.741 168.722C105.61 173.178 107.103 180.946 107.83 185.07C108.146 186.858 107.672 188.57 106.571 190.013L105.788 191.042C104.233 193.082 101.957 194.462 99.4129 194.782C93.0762 195.58 84.6544 196.157 83.3652 194.372C81.7773 192.173 84.7613 189.852 86.4518 188.966Z" stroke="#2F2F2F" stroke-width="3" stroke-linecap="round"/>
<path d="M169.864 204.81C165.57 206.286 158.096 208.877 154.161 210.309C152.455 210.929 151.209 212.196 150.509 213.871L150.01 215.064C149.021 217.43 148.964 220.091 149.958 222.455C152.436 228.341 156.147 235.923 158.338 236.147C161.036 236.423 161.554 232.678 161.476 230.771C164.015 230.242 166.744 229.135 167.71 227.034C169.585 222.954 160.143 230.242 171.463 220.533C177.65 215.227 183.669 199.391 169.864 204.81Z" fill="#A5B63A"/>
<path d="M157.767 231.188C158.725 231.179 160.071 231.064 161.476 230.771M161.476 230.771C164.015 230.242 166.744 229.135 167.71 227.034C169.585 222.954 160.143 230.242 171.463 220.533C177.65 215.227 183.669 199.391 169.864 204.81C165.57 206.286 158.096 208.877 154.161 210.309C152.455 210.929 151.209 212.196 150.509 213.871L150.01 215.064C149.021 217.43 148.964 220.091 149.958 222.455C152.436 228.341 156.147 235.923 158.338 236.147C161.036 236.423 161.554 232.678 161.476 230.771Z" stroke="#2F2F2F" stroke-width="3" stroke-linecap="round"/>
<path d="M92.3257 165.11C94.6421 169.852 98.5536 177.913 100.831 182.758C102.055 185.362 102.046 188.176 100.954 190.838L100.318 192.387C99.37 194.698 97.5764 196.568 95.2692 197.526C87.8937 200.589 77.2181 204.362 75.0134 202.567C72.4146 200.45 75.2342 196.724 76.9688 195.126C75.2122 192.446 73.7953 189.094 74.7874 186.413C76.7138 181.209 84.2869 186.506 82.8789 168.129C82.1094 158.085 89.5309 159.389 92.3257 165.11Z" fill="url(#paint0_linear_3388_9844)"/>
<path d="M79.8464 198.732C79.017 197.887 77.9409 196.61 76.9688 195.126M76.9688 195.126C75.2122 192.446 73.7953 189.094 74.7874 186.413C76.7138 181.209 84.2869 186.506 82.8789 168.129C82.1094 158.085 89.5309 159.389 92.3257 165.11C94.6421 169.852 98.5536 177.913 100.831 182.758C102.055 185.362 102.046 188.176 100.954 190.838V190.838M76.9688 195.126C75.2342 196.724 72.4146 200.45 75.0134 202.567C77.2181 204.362 87.8937 200.589 95.2692 197.526C97.5764 196.568 99.37 194.698 100.318 192.387V192.387M100.954 190.838L91.5965 179.185M100.954 190.838L100.318 192.387M100.318 192.387L93.4253 188.407M90.2915 186.598L87.7121 185.109" stroke="#2F2F2F" stroke-width="3"/>
<path d="M178.492 216.137C173.33 216.495 165.168 216.277 160.151 216.169C157.274 216.107 154.831 217.375 153.072 219.652L152.048 220.976C150.521 222.953 149.799 225.441 150.122 227.919C151.157 235.838 153.227 246.97 155.885 247.981C159.017 249.173 160.834 244.869 161.351 242.567C164.551 242.748 168.162 242.299 169.987 240.1C173.531 235.829 163.982 233.797 180.6 225.828C189.683 221.473 184.843 215.697 178.492 216.137Z" fill="url(#paint1_linear_3388_9844)"/>
<path d="M156.789 241.878C157.935 242.174 159.58 242.467 161.351 242.567M161.351 242.567C164.551 242.748 168.162 242.299 169.987 240.1C173.531 235.829 163.982 233.797 180.6 225.828C189.683 221.473 184.843 215.697 178.492 216.137C173.33 216.495 165.168 216.277 160.151 216.169C157.274 216.107 154.831 217.375 153.072 219.652V219.652M161.351 242.567C160.834 244.869 159.017 249.173 155.885 247.981C153.227 246.97 151.157 235.838 150.122 227.919C149.799 225.441 150.521 222.953 152.048 220.976V220.976M153.072 219.652L167.271 224.509M153.072 219.652L152.048 220.976M152.048 220.976L158.371 227.536M160.617 230.078L162.718 232.396" stroke="#2F2F2F" stroke-width="3"/>
<circle cx="128.226" cy="204.3" r="32.6289" transform="rotate(30 128.226 204.3)" fill="url(#paint2_linear_3388_9844)" stroke="#2F2F2F" stroke-width="3"/>
<mask id="mask0_3388_9844" style="mask-type:alpha" maskUnits="userSpaceOnUse" x="94" y="170" width="69" height="69">
<circle cx="128.226" cy="204.298" r="32.6289" transform="rotate(30 128.226 204.298)" fill="url(#paint3_linear_3388_9844)" stroke="#2F2F2F" stroke-width="3"/>
</mask>
<g mask="url(#mask0_3388_9844)">
<path d="M157.459 151.307L161.711 158.671L80.0458 205.821L75.7938 198.456L157.459 151.307Z" fill="#F6EBD8"/>
<path d="M166.605 167.149L170.857 174.513L89.1922 221.663L84.9403 214.298L166.605 167.149Z" fill="#F6EBD8"/>
<path d="M175.752 182.991L180.004 190.356L98.3387 237.505L94.0868 230.14L175.752 182.991Z" fill="#F6EBD8"/>
<path d="M184.898 198.833L189.15 206.198L107.485 253.347L103.233 245.983L184.898 198.833Z" fill="#F6EBD8"/>
<path d="M157.459 151.307L161.711 158.671L80.0458 205.821L75.7938 198.456L157.459 151.307Z" stroke="#2F2F2F" stroke-width="3"/>
<path d="M166.605 167.149L170.857 174.513L89.1922 221.663L84.9403 214.298L166.605 167.149Z" stroke="#2F2F2F" stroke-width="3"/>
<path d="M175.752 182.991L180.004 190.356L98.3387 237.505L94.0868 230.14L175.752 182.991Z" stroke="#2F2F2F" stroke-width="3"/>
<path d="M184.898 198.833L189.15 206.198L107.485 253.347L103.233 245.983L184.898 198.833Z" stroke="#2F2F2F" stroke-width="3"/>
</g>
<circle cx="128.226" cy="204.3" r="32.6289" transform="rotate(30 128.226 204.3)" stroke="#2F2F2F" stroke-width="3" stroke-linecap="round"/>
</g>
<circle opacity="0.3" r="13.1982" transform="matrix(-1 0 0 1 174.251 15.6572)" fill="white" stroke="#2F2F2F" stroke-width="3"/>
<g opacity="0.3">
<circle cx="47.0439" cy="496.511" r="10.3428" fill="#96B4C9" stroke="#2F2F2F" stroke-width="3"/>
<circle cx="47.0439" cy="427.675" r="18.4131" fill="#97B5C9" stroke="#2F2F2F" stroke-width="3"/>
<circle cx="72.1807" cy="466.163" r="6.94434" fill="#96B4C9" stroke="#2F2F2F" stroke-width="3"/>
<circle cx="8.47754" cy="547.104" r="6.94434" fill="#96B4C9" stroke="#2F2F2F" stroke-width="3"/>
</g>
<defs>
<linearGradient id="paint0_linear_3388_9844" x1="94.4191" y1="196.944" x2="85.0844" y2="190.571" gradientUnits="userSpaceOnUse">
<stop stop-color="#A2B53A"/>
<stop offset="1" stop-color="#C4BF3B"/>
</linearGradient>
<linearGradient id="paint1_linear_3388_9844" x1="150.665" y1="229.015" x2="160.841" y2="233.858" gradientUnits="userSpaceOnUse">
<stop stop-color="#A2B53A"/>
<stop offset="1" stop-color="#C4BF3B"/>
</linearGradient>
<linearGradient id="paint2_linear_3388_9844" x1="153.531" y1="214.615" x2="129.041" y2="211.97" gradientUnits="userSpaceOnUse">
<stop stop-color="#A2B53A"/>
<stop offset="1" stop-color="#C4BF3B"/>
</linearGradient>
<linearGradient id="paint3_linear_3388_9844" x1="153.531" y1="214.614" x2="129.041" y2="211.968" gradientUnits="userSpaceOnUse">
<stop stop-color="#A2B53A"/>
<stop offset="1" stop-color="#C4BF3B"/>
</linearGradient>
</defs>
</svg>
